# digital_grass.obj

v -0.356950 0.000000 0.356950
v 0.356950 0.000000 -0.356950
v -0.356950 1.000000 0.356950
v 0.356950 0.000000 0.356950
v -0.356950 0.000000 -0.356950
v -0.356950 1.000000 -0.356950
v -0.356950 1.000000 -0.356950
v 0.356950 0.000000 -0.356950
v -0.356950 1.000000 0.356950
v 0.356950 0.000000 0.356950
v 0.356950 1.000000 -0.356950
v 0.356950 1.000000 0.356950

vt 0.000000 0.000000
vt 1.000000 0.000000
vt 0.000000 1.000000
vt 0.000000 0.000000
vt 1.000000 0.000000
vt 1.000000 1.000000
vt 1.000000 0.000000
vt 1.000000 1.000000
vt 0.000000 1.000000
vt 0.000000 1.000000
vt 0.000000 0.000000
vt 1.000000 1.000000

vn 0.7071 0.0000 0.7071
vn 0.7071 0.0000 -0.7071
vn -0.7071 0.0000 -0.7071
vn -0.7071 0.0000 0.7071

f 1/1/1 8/2/1 9/3/1
f 2/7/1 11/8/1 3/9/1
f 12/10/2 4/11/2 6/12/2
f 10/4/2 5/5/2 7/6/2
f 1/1/3 9/3/3 8/2/3
f 2/7/3 3/9/3 11/8/3
f 12/10/4 6/12/4 4/11/4
f 10/4/4 7/6/4 5/5/4