# 3ds Max Wavefront OBJ Exporter v0.97b - (c)2007 guruware
# File Created: 09.05.2020 20:18:12

#
# object Plane001
#

v  -53.8467 0.0000 28.9149
v  -48.0694 0.0000 52.3893
v  -27.4975 0.0000 28.9149
v  -27.4975 0.0000 54.5612
v  -1.1484 0.0000 28.9149
v  -1.1484 0.0000 55.9621
v  25.2008 13.8604 28.9149
v  25.2008 0.0000 51.0593
v  46.2167 0.0000 29.5075
v  43.1921 0.0000 50.4751
v  -47.9856 0.0000 1.8678
v  -27.4975 0.0000 1.8678
v  -1.1484 11.8575 1.8678
v  25.2008 -8.4576 1.8678
v  51.5500 0.0000 1.8678
v  -53.8467 0.0000 -25.1793
v  -27.4975 10.4982 -25.1793
v  -1.1484 -4.4379 -25.1793
v  25.2008 8.1175 -25.1793
v  51.5500 0.0000 -25.1793
v  -51.5090 0.0000 -46.2638
v  -27.4975 0.0000 -52.2264
v  -1.1484 0.0000 -52.2264
v  25.2008 0.0000 -52.2264
v  47.6166 0.2978 -49.8169
# 25 vertices

vn 0.0000 1.0000 -0.0000
vn 0.3421 0.9299 0.1351
vn 0.0313 0.9993 0.0190
vn 0.1470 0.9773 0.1523
vn -0.1196 0.9770 -0.1766
vn 0.1411 0.9783 -0.1519
# 6 vertex normals

vt 0.0000 0.2500 0.0000
vt 0.0000 0.0000 0.0000
vt 0.2500 0.2500 0.0000
vt 0.2500 0.0000 0.0000
vt 0.5000 0.2500 0.0000
vt 0.5000 0.0000 0.0000
vt 0.7500 0.2500 0.0000
vt 0.7500 0.0000 0.0000
vt 1.0000 0.2500 0.0000
vt 1.0000 0.0000 0.0000
vt 0.0000 0.5000 0.0000
vt 0.2500 0.5000 0.0000
vt 0.5000 0.5000 0.0000
vt 0.7500 0.5000 0.0000
vt 1.0000 0.5000 0.0000
vt 0.0000 0.7500 0.0000
vt 0.2500 0.7500 0.0000
vt 0.5000 0.7500 0.0000
vt 0.7500 0.7500 0.0000
vt 1.0000 0.7500 0.0000
vt 0.0000 1.0000 0.0000
vt 0.2500 1.0000 0.0000
vt 0.5000 1.0000 0.0000
vt 0.7500 1.0000 0.0000
vt 1.0000 1.0000 0.0000
# 25 texture coords

o Plane001
g Plane001
f 1/1/1 2/2/1 3/3/1 
f 4/4/1 3/3/1 2/2/1 
f 3/3/1 4/4/1 5/5/1 
f 6/6/1 5/5/1 4/4/1 
f 5/5/1 6/6/1 7/7/1 
f 8/8/1 7/7/1 6/6/1 
f 7/7/1 8/8/1 9/9/2 
f 10/10/1 9/9/2 8/8/1 
f 11/11/1 1/1/1 12/12/1 
f 3/3/1 12/12/1 1/1/1 
f 12/12/1 3/3/1 13/13/1 
f 5/5/1 13/13/1 3/3/1 
f 13/13/1 5/5/1 14/14/1 
f 7/7/1 14/14/1 5/5/1 
f 14/14/1 7/7/1 15/15/1 
f 9/9/2 15/15/1 7/7/1 
f 16/16/1 11/11/1 17/17/1 
f 12/12/1 17/17/1 11/11/1 
f 17/17/1 12/12/1 18/18/1 
f 13/13/1 18/18/1 12/12/1 
f 18/18/1 13/13/1 19/19/3 
f 14/14/1 19/19/3 13/13/1 
f 19/19/3 14/14/1 20/20/4 
f 15/15/1 20/20/4 14/14/1 
f 21/21/1 16/16/1 22/22/1 
f 17/17/1 22/22/1 16/16/1 
f 22/22/1 17/17/1 23/23/1 
f 18/18/1 23/23/1 17/17/1 
f 23/23/1 18/18/1 24/24/5 
f 19/19/3 24/24/5 18/18/1 
f 24/24/5 19/19/3 25/25/6 
f 20/20/4 25/25/6 19/19/3 
# 32 faces

